<svg width="254" height="212" viewBox="0 0 254 212" fill="none" xmlns="http://www.w3.org/2000/svg">
<g clip-path="url(#clip0_53_178)">
<path d="M206.863 102.319C206.863 105.298 206.736 108.246 206.483 111.165C206.284 113.443 206.012 115.701 205.667 117.938C205.301 120.307 204.852 122.647 204.32 124.959V124.962C203.973 126.483 203.591 127.993 203.176 129.489C201.969 133.84 200.469 138.106 198.685 142.258C198.298 143.161 197.897 144.058 197.484 144.949C195.921 148.323 194.171 151.609 192.243 154.792C186.833 163.73 180.08 171.803 172.216 178.733C171.365 179.482 170.502 180.218 169.628 180.942C151.06 196.286 127.625 204.674 103.431 204.638C46.3071 204.638 0 158.829 0 102.319C0 45.8087 46.3071 -0.000361552 103.431 -0.000361552C126.792 -0.0367997 149.471 7.78545 167.745 22.1821C168.601 22.8535 169.447 23.5401 170.282 24.2418C174.357 27.6603 178.16 31.3839 181.657 35.3796H181.66C197.949 53.9544 206.9 77.7285 206.863 102.319Z" fill="#F2F2F2"/>
<path d="M30.5328 119.993C20.6798 114.192 13.2431 103.35 14.2086 92.0479C23.2167 100.577 34.984 105.679 47.4286 106.451C52.2291 106.732 57.5979 106.549 61.1316 109.776C63.3304 111.784 64.3539 114.806 64.5218 117.761C64.6896 120.717 64.0912 123.656 63.4958 126.557L63.7007 127.268C52.2346 127.31 40.3859 125.794 30.5328 119.993Z" fill="#E6E6E6"/>
<path d="M14.4488 92.036C18.3967 100.574 24.9636 107.664 33.2168 112.3C34.9911 113.282 36.8774 114.126 38.8819 114.517C40.8387 114.884 42.8591 114.726 44.7332 114.059C46.4931 113.472 48.2247 112.669 50.0983 112.516C52.0732 112.354 53.9015 113.107 55.338 114.428C57.0955 116.043 58.1616 118.186 59.1305 120.319C60.2062 122.686 61.2857 125.162 63.3482 126.864C63.5981 127.07 63.2599 127.442 63.0104 127.236C59.422 124.274 58.8362 119.314 55.9678 115.825C54.6294 114.198 52.787 112.959 50.5982 112.992C48.6842 113.02 46.8979 113.846 45.1211 114.456C43.2554 115.096 41.3864 115.397 39.4167 115.115C37.4018 114.827 35.4782 114.054 33.6864 113.121C29.639 110.975 25.958 108.212 22.7781 104.935C19.128 101.214 16.1481 96.9031 13.9674 92.1885C13.8326 91.8966 14.3149 91.7461 14.4488 92.036Z" fill="white"/>
<path d="M30.4705 110.961C29.4963 112.226 28.0996 113.106 26.5298 113.446C24.9599 113.785 23.3191 113.562 21.9005 112.815C21.614 112.663 21.8394 112.215 22.1263 112.368C23.446 113.065 24.9744 113.273 26.4356 112.954C27.8968 112.635 29.1946 111.81 30.0946 110.627C30.2905 110.37 30.6653 110.706 30.4705 110.961Z" fill="white"/>
<path d="M43.8804 114.472C43.4704 111.248 41.8471 108.295 39.334 106.203C39.0849 105.995 39.4229 105.624 39.6718 105.831C42.2828 108.013 43.9659 111.09 44.385 114.446C44.4248 114.766 43.9199 114.79 43.8804 114.472Z" fill="white"/>
<path d="M19.7546 100.979C20.2346 100.568 20.6038 100.045 20.8289 99.4571C21.0541 98.8696 21.1283 98.236 21.0447 97.6132C21.0009 97.294 21.5058 97.2694 21.5494 97.5866C21.6384 98.2751 21.5557 98.9748 21.3083 99.6244C21.061 100.274 20.6566 100.854 20.1305 101.313C20.0846 101.361 20.0222 101.389 19.9559 101.392C19.8896 101.396 19.8245 101.374 19.7737 101.332C19.7242 101.288 19.6944 101.225 19.6908 101.159C19.6872 101.093 19.7102 101.028 19.7546 100.979Z" fill="white"/>
<path d="M46.1022 70.1514C46.1353 70.3499 46.1684 70.5485 46.2053 70.749C46.6641 73.4164 47.3412 76.0426 48.23 78.6016C48.2955 78.8005 48.3649 79.0011 48.4361 79.1978C50.6437 85.3403 53.985 91.0241 58.29 95.96C60.0049 97.9226 61.8683 99.7533 63.8639 101.436C66.6202 103.76 69.7955 106.063 71.5627 109.064C71.7506 109.375 71.9189 109.697 72.0665 110.029L64.5611 126.966C64.5245 126.996 64.4917 127.028 64.4551 127.058L64.1867 127.748C64.0776 127.668 63.9662 127.583 63.8572 127.503C63.7937 127.457 63.7319 127.408 63.6685 127.362C63.6267 127.33 63.585 127.298 63.5455 127.271C63.5315 127.261 63.5177 127.25 63.5076 127.241C63.4681 127.215 63.4342 127.186 63.3986 127.161C62.7747 126.688 62.1531 126.21 61.5338 125.726C61.5299 125.725 61.5299 125.725 61.5276 125.719C56.8182 122.023 52.3793 117.905 48.7133 113.252C48.6031 113.112 48.4888 112.97 48.382 112.823C46.7413 110.716 45.2774 108.48 44.0049 106.138C43.3123 104.853 42.6859 103.534 42.1281 102.187C40.6936 98.7022 39.822 95.016 39.5454 91.2635C38.9952 83.7829 40.8695 76.2114 45.7268 70.5782C45.8512 70.4341 45.9739 70.2937 46.1022 70.1514Z" fill="#E6E6E6"/>
<path d="M46.3026 70.2833C44.2585 79.4516 45.1866 89.0239 48.9551 97.6407C49.7738 99.4819 50.7663 101.279 52.1286 102.786C53.4678 104.244 55.1773 105.321 57.0796 105.904C58.8422 106.484 60.713 106.875 62.3025 107.868C63.9779 108.915 64.979 110.605 65.3225 112.515C65.7428 114.851 65.2893 117.198 64.7652 119.477C64.1834 122.008 63.5384 124.628 64.1491 127.216C64.2231 127.529 63.727 127.624 63.6531 127.311C62.5906 122.809 65.1419 118.5 64.9747 114.006C64.8967 111.909 64.1794 109.823 62.4119 108.545C60.8664 107.428 58.9375 107.024 57.1477 106.452C55.2684 105.852 53.5931 104.979 52.1918 103.581C50.7585 102.151 49.6928 100.389 48.8301 98.5761C46.9048 94.4518 45.647 90.0538 45.1028 85.543C44.4528 80.3982 44.6972 75.1814 45.8255 70.1183C45.8954 69.8049 46.3721 69.972 46.3026 70.2833Z" fill="white"/>
<path d="M47.5766 94.9368C46.0293 95.366 44.3782 95.2371 42.9181 94.5732C41.458 93.9093 40.284 92.7536 39.6058 91.3125C39.4696 91.0205 39.9219 90.7973 40.0583 91.0898C40.6874 92.4329 41.7811 93.5093 43.142 94.1248C44.5029 94.7403 46.0414 94.8542 47.4798 94.4461C47.7925 94.3578 47.8875 94.8489 47.5766 94.9368Z" fill="white"/>
<path d="M56.1468 105.727C57.7817 102.909 58.2827 99.584 57.5498 96.4164C57.4769 96.1026 57.973 96.0072 58.0458 96.3206C58.8022 99.6184 58.2738 103.077 56.5659 106.006C56.4029 106.285 55.9847 106.005 56.1468 105.727Z" fill="white"/>
<path d="M45.096 80.5843C45.7296 80.5416 46.3426 80.3439 46.88 80.009C47.4173 79.674 47.8621 79.2123 48.1745 78.6652C48.3338 78.3842 48.7519 78.6653 48.5936 78.9445C48.2457 79.5473 47.7538 80.0567 47.1609 80.428C46.5681 80.7994 45.8923 81.0215 45.1927 81.0749C45.1272 81.0854 45.0601 81.0709 45.005 81.0342C44.95 80.9975 44.9111 80.9415 44.8963 80.8775C44.8839 80.8124 44.8978 80.7452 44.9352 80.6903C44.9726 80.6354 45.0303 80.5973 45.096 80.5843Z" fill="white"/>
<path d="M71.6478 23.7147L84.3074 170.317L58.9883 172.2V25.5799C62.0053 23.605 66.3361 23.296 71.6478 23.7147Z" fill="#CCCCCC"/>
<path d="M134.138 23.7147L121.478 170.317L146.797 172.2V25.5799C143.78 23.605 139.449 23.296 134.138 23.7147Z" fill="#CCCCCC"/>
<path d="M143.006 178.259H62.51C61.2192 178.257 59.9817 177.749 59.069 176.846C58.1563 175.944 57.6429 174.719 57.6415 173.442V27.7311C57.6429 26.4543 58.1563 25.2301 59.069 24.3273C59.9817 23.4244 61.2192 22.9165 62.51 22.915H143.006C144.297 22.9165 145.534 23.4244 146.447 24.3273C147.36 25.2301 147.873 26.4543 147.875 27.7311V173.442C147.873 174.719 147.36 175.944 146.447 176.846C145.534 177.749 144.297 178.257 143.006 178.259ZM62.51 24.5138C61.6477 24.5147 60.821 24.854 60.2112 25.4572C59.6015 26.0603 59.2586 26.8781 59.2576 27.7311V173.442C59.2585 174.296 59.6015 175.113 60.2112 175.717C60.821 176.32 61.6477 176.659 62.51 176.66H143.006C143.868 176.659 144.695 176.32 145.305 175.717C145.915 175.113 146.258 174.296 146.259 173.442V27.7311C146.258 26.8781 145.915 26.0603 145.305 25.4572C144.695 24.854 143.868 24.5147 143.006 24.5138L62.51 24.5138Z" fill="#CCCCCC"/>
<path d="M147.067 47.1626H58.4496V48.7613H147.067V47.1626Z" fill="#CCCCCC"/>
<path d="M147.067 73.8081H58.4496V75.4068H147.067V73.8081Z" fill="#CCCCCC"/>
<path d="M87.2067 23.7144H85.5905V96.4568H87.2067V23.7144Z" fill="#CCCCCC"/>
<path d="M119.926 23.7144H118.31V96.4568H119.926V23.7144Z" fill="#CCCCCC"/>
<path d="M157.167 182.655H51.0424C49.1136 182.655 47.2638 181.897 45.8999 180.548C44.536 179.199 43.7698 177.369 43.7698 175.461C43.7698 173.553 44.536 171.723 45.8999 170.374C47.2638 169.025 49.1136 168.267 51.0424 168.267H157.167C159.096 168.267 160.946 169.025 162.31 170.374C163.674 171.723 164.44 173.553 164.44 175.461C164.44 177.369 163.674 179.199 162.31 180.548C160.946 181.897 159.096 182.655 157.167 182.655Z" fill="#CCCCCC"/>
<path d="M147.067 92.7266H58.9883V98.0557H147.067V92.7266Z" fill="#CCCCCC"/>
<path d="M87.4575 109.686L87.3457 109.633C81.3414 106.764 73.4786 106.766 61.8506 109.643L61.7264 109.673L61.6892 109.552C60.4591 105.562 59.0656 101.043 61.6834 98.8196C61.7201 92.2953 67.5053 86.9976 74.6112 86.9976C81.7156 86.9976 87.5 92.2926 87.5388 98.8152C91.433 101.76 89.5771 106.113 87.5204 109.581L87.4575 109.686Z" fill="#2F2E41"/>
<path d="M124.362 95.7162C124.254 96.2449 124.031 96.7438 123.707 97.1778C123.383 97.6117 122.968 97.9703 122.489 98.228C122.01 98.4858 121.48 98.6366 120.936 98.6697C120.391 98.7029 119.847 98.6176 119.339 98.4199L98.1204 119.514L96.2272 112.964L117.302 93.3756C117.694 92.5547 118.377 91.9046 119.221 91.5485C120.065 91.1925 121.012 91.1552 121.883 91.4437C122.753 91.7322 123.486 92.3265 123.943 93.114C124.4 93.9014 124.549 94.8273 124.362 95.7162Z" fill="#FFB6B6"/>
<path d="M71.9193 116.023C71.9193 116.023 69.9942 120.339 74.7444 123.001C79.4946 125.662 96.0968 121.985 98.7906 121.472C101.484 120.958 111.546 106.063 111.546 106.063L110.123 98.7583L96.7794 110.217L71.9193 116.023Z" fill="#4DB8A0"/>
<path d="M68.4156 139.889L68.685 144.952C68.685 144.952 67.89 149.437 68.5438 150.404C69.1927 151.367 86.9003 151.489 86.9003 151.489C86.9003 151.489 88.0703 145.249 89.0781 139.788L68.4156 139.889Z" fill="#FFB6B6"/>
<path d="M119.327 206.829L123.029 206.089L121.969 191.297L116.506 192.389L119.327 206.829Z" fill="#FFB6B6"/>
<path d="M124.63 187.579L128.071 186.048L123.607 171.895L118.527 174.155L124.63 187.579Z" fill="#FFB6B6"/>
<path d="M127.628 179.604L121.148 183.234L105.166 157.83C93.9474 165.307 82.9767 168.887 71.9172 170.798C68.1781 171.457 64.3658 171.123 63.6479 167.358C63.6144 167.182 63.5876 167.005 63.5677 166.827C63.1261 162.715 68.297 157.444 68.9543 152.413L83.1063 151.572L84.8514 153.786L101.218 143.832C104.509 141.83 108.838 142.913 110.886 146.25C110.995 146.426 111.095 146.607 111.188 146.792L127.628 179.604Z" fill="#2F2E41"/>
<path d="M123.661 196.694L116.247 197.376L102.802 170.176C89.4706 172.444 76.8933 173.17 66.0145 170.427C62.3312 169.51 60.0797 165.748 60.9857 162.023C61.028 161.849 61.077 161.677 61.1325 161.506C62.4345 157.577 65.8427 154.796 68.5278 150.474L88.1413 150.769L85.9506 158.246L105.004 155.807C108.835 155.317 112.335 158.06 112.82 161.935C112.845 162.14 112.862 162.345 112.87 162.551L123.661 196.694Z" fill="#2F2E41"/>
<path d="M76.0739 105.82C80.4724 105.82 84.0381 102.292 84.0381 97.941C84.0381 93.5898 80.4724 90.0625 76.0739 90.0625C71.6754 90.0625 68.1097 93.5898 68.1097 97.941C68.1097 102.292 71.6754 105.82 76.0739 105.82Z" fill="#FFB6B6"/>
<path d="M71.4049 108.664L78.7073 109.513C79.0153 109.549 79.3043 109.679 79.534 109.885C79.7637 110.091 79.9228 110.363 79.989 110.663L81.1503 115.92L88.3896 124.353C88.3896 124.353 90.9891 129.175 90.0143 134.64C89.0395 140.104 88.6111 144.165 88.6111 144.165C88.6111 144.165 69.1918 151.367 68.5419 150.403C67.892 149.439 67.6811 145.058 67.6811 145.058L65.0816 116.449C65.0816 116.449 68.0061 111.628 69.6308 111.628C70.6794 111.593 70.5449 109.258 71.4049 108.664Z" fill="#4DB8A0"/>
<path d="M88.8085 145.924C89.8325 145.924 90.6627 144.938 90.6627 143.723C90.6627 142.507 89.8325 141.521 88.8085 141.521C87.7845 141.521 86.9543 142.507 86.9543 143.723C86.9543 144.938 87.7845 145.924 88.8085 145.924Z" fill="#4DB8A0"/>
<path d="M117.49 203.02L123.134 200.222L124.198 202.677L131.335 204.104C131.687 204.174 132.008 204.354 132.249 204.618C132.491 204.881 132.641 205.214 132.678 205.568C132.715 205.922 132.637 206.278 132.454 206.585C132.272 206.891 131.995 207.132 131.665 207.273L124.769 210.197L122.528 208.272L123.117 210.897L120.517 212L117.49 203.02Z" fill="#2F2E41"/>
<path d="M123.015 186.401L128.608 183.505L129.715 185.941L136.876 187.244C137.23 187.308 137.554 187.483 137.8 187.742C138.046 188.001 138.203 188.332 138.246 188.685C138.289 189.038 138.217 189.395 138.04 189.705C137.863 190.015 137.591 190.261 137.263 190.407L130.42 193.45L128.146 191.565L128.78 194.18L126.2 195.327L123.015 186.401Z" fill="#2F2E41"/>
<path d="M71.5237 95.47C69.4196 95.4734 67.3661 94.8325 65.6449 93.6353L65.5874 93.5955V93.5261C65.5897 91.5128 66.3993 89.5825 67.8384 88.1589C69.2775 86.7352 71.2287 85.9344 73.264 85.9321H76.4962C78.5315 85.9344 80.4827 86.7352 81.9218 88.1589C83.3609 89.5825 84.1705 91.5128 84.1728 93.5261C84.1706 93.9869 83.9867 94.4287 83.6602 94.7574C83.3337 95.086 82.8903 95.2756 82.4246 95.2857L71.7053 95.4684C71.6448 95.4695 71.5841 95.47 71.5237 95.47Z" fill="#2F2E41"/>
<path d="M84.7115 92.0675C85.7421 91.4788 85.9143 89.8652 85.0961 88.4633C84.278 87.0614 82.7792 86.4022 81.7486 86.9908C80.7179 87.5795 80.5457 89.1931 81.3639 90.595C82.1821 91.9969 83.6808 92.6561 84.7115 92.0675Z" fill="#2F2E41"/>
<path d="M68.5926 90.5036C69.7496 89.359 70.0054 87.7562 69.1639 86.9237C68.3224 86.0913 66.7023 86.3444 65.5452 87.489C64.3881 88.6336 64.1323 90.2364 64.9738 91.0688C65.8153 91.9013 67.4355 91.6482 68.5926 90.5036Z" fill="#2F2E41"/>
<path d="M139.077 162.538H131.128C130.949 162.538 130.771 162.576 130.609 162.65C130.446 162.725 130.301 162.834 130.186 162.969C129.892 162.916 129.591 162.932 129.305 163.016C129.019 163.101 128.758 163.251 128.542 163.455C128.327 163.659 128.163 163.91 128.065 164.188C127.967 164.467 127.937 164.764 127.977 165.057C128.018 165.349 128.127 165.627 128.298 165.869C128.468 166.111 128.694 166.31 128.957 166.449C129.22 166.587 129.513 166.663 129.811 166.668C130.109 166.673 130.404 166.608 130.672 166.479L131.331 168.599C131.409 168.85 131.567 169.069 131.78 169.226C131.994 169.382 132.253 169.466 132.518 169.466H137.687C137.952 169.466 138.211 169.382 138.425 169.226C138.638 169.069 138.796 168.85 138.874 168.599L140.264 164.128C140.322 163.944 140.334 163.75 140.302 163.56C140.269 163.371 140.192 163.192 140.076 163.037C139.961 162.882 139.81 162.756 139.637 162.67C139.463 162.583 139.272 162.538 139.077 162.538ZM129.85 166.135C129.493 166.135 129.15 165.995 128.898 165.745C128.645 165.495 128.503 165.156 128.503 164.803C128.503 164.45 128.645 164.111 128.898 163.861C129.15 163.611 129.493 163.471 129.85 163.471C129.875 163.471 129.898 163.477 129.922 163.478C129.868 163.692 129.875 163.917 129.941 164.128L130.51 165.957C130.309 166.072 130.082 166.134 129.85 166.135Z" fill="#3F3D56"/>
<path d="M103.58 156.754C103.037 156.803 102.49 156.735 101.977 156.552C101.464 156.37 100.997 156.079 100.61 155.699C100.223 155.319 99.9254 154.86 99.7371 154.354C99.5489 153.848 99.4751 153.307 99.521 152.77L73.0063 138.714L78.8057 135.041L103.821 149.391C104.729 149.528 105.554 149.988 106.141 150.686C106.728 151.384 107.036 152.271 107.006 153.178C106.977 154.086 106.612 154.951 105.98 155.61C105.349 156.269 104.495 156.676 103.58 156.754Z" fill="#FFB6B6"/>
<path d="M68.8688 112.883C68.8688 112.883 64.1372 112.297 62.9229 117.562C61.7085 122.827 70.0327 137.505 71.3027 139.911C72.5728 142.317 89.8835 147.578 89.8835 147.578L96.5491 144.133L81.6242 134.776L68.8688 112.883Z" fill="#4DB8A0"/>
<path d="M102.219 91.1279H103.835C104.621 91.1279 105.375 91.4367 105.931 91.9864C106.486 92.5361 106.798 93.2816 106.798 94.0589H99.2565C99.2565 93.2816 99.5687 92.5361 100.124 91.9864C100.68 91.4367 101.434 91.1279 102.219 91.1279Z" fill="#CCCCCC"/>
<path d="M50.9727 36.4419C59.8153 36.4419 66.9836 29.3507 66.9836 20.6033C66.9836 11.8558 59.8153 4.76465 50.9727 4.76465C42.1302 4.76465 34.9619 11.8558 34.9619 20.6033C34.9619 29.3507 42.1302 36.4419 50.9727 36.4419Z" fill="#FF6584"/>
<path d="M99.9941 19.7778C95.7569 15.3807 90.8358 11.3693 85.0101 9.24953C83.3873 8.65655 81.7047 8.23826 79.9913 8.0019C79.9776 8.00003 79.9645 8.00279 79.9508 8.00169C79.923 7.99459 79.8947 7.9891 79.8662 7.98525C77.4699 7.68326 75.0376 7.82852 72.6954 8.41351C71.55 8.69784 70.4327 9.08291 69.3566 9.56411C68.2768 10.0852 67.2305 10.6718 66.2237 11.3205C64.0927 12.5824 61.7464 13.4483 59.3006 13.8754C58.073 14.0941 56.8295 14.2148 55.5823 14.2365C54.5002 14.2579 53.4796 14.2951 52.4543 14.6819C51.359 15.0893 50.3752 15.7443 49.5813 16.5947C48.7874 17.4451 48.2054 18.4672 47.8818 19.5796C47.8568 19.6787 47.8643 19.783 47.9032 19.8776C47.9421 19.9721 48.0104 20.052 48.0982 20.1057C48.3755 20.3022 48.6459 20.5251 48.9373 20.7002C49.1966 20.8176 49.4734 20.8923 49.757 20.9214C50.2203 21.0181 50.6842 21.112 51.1487 21.203C52.8598 21.5384 54.5781 21.8353 56.3034 22.0937C59.7946 22.6165 63.3047 22.9848 66.8336 23.1985C73.903 23.6221 80.9967 23.4112 88.0276 22.5684C91.979 22.0949 95.9036 21.4234 99.7863 20.5565C99.8649 20.5337 99.9362 20.4913 99.9934 20.4332C100.051 20.3752 100.092 20.3035 100.112 20.2252C100.133 20.1469 100.133 20.0645 100.113 19.9861C100.092 19.9078 100.051 19.836 99.9941 19.7778Z" fill="#E6E6E6"/>
<path d="M51.7326 30.3677C50.1099 29.7747 48.4272 29.3564 46.7139 29.1201C46.7001 29.1182 46.6871 29.121 46.6734 29.1199C46.6455 29.1128 46.6172 29.1073 46.5887 29.1034C44.1924 28.8014 41.7601 28.9467 39.418 29.5317C38.2726 29.816 37.1552 30.2011 36.0792 30.6823C34.9993 31.2034 33.953 31.79 32.9463 32.4387C30.8153 33.7006 28.469 34.5664 26.0232 34.9936C24.7955 35.2123 23.5521 35.333 22.3049 35.3546C21.2227 35.3761 20.2022 35.4133 19.1768 35.8C18.0816 36.2075 17.0978 36.8625 16.3039 37.7129C15.51 38.5632 14.928 39.5854 14.6043 40.6977C14.5794 40.7968 14.5869 40.9011 14.6258 40.9957C14.6647 41.0903 14.733 41.1701 14.8208 41.2238C15.0981 41.4203 15.3685 41.6433 15.6599 41.8184C15.9191 41.9357 16.196 42.0104 16.4796 42.0395C16.9429 42.1362 17.4068 42.2301 17.8712 42.3212C19.5824 42.6566 21.3006 42.9534 23.026 43.2118C26.5172 43.7346 30.0272 44.1029 33.5561 44.3167C40.6256 44.7403 47.7192 44.5294 54.7502 43.6865C58.7016 43.2131 62.6262 42.5416 66.5089 41.6746C66.5875 41.6519 66.6588 41.6094 66.716 41.5514C66.7731 41.4933 66.8141 41.4217 66.835 41.3433C66.8559 41.265 66.856 41.1827 66.8353 41.1043C66.8145 41.0259 66.7737 40.9542 66.7167 40.896C62.4794 36.4988 57.5583 32.4875 51.7326 30.3677Z" fill="#E6E6E6"/>
<path d="M167.193 148.442L154.881 132.441L145.166 137.876L165.753 162.06L167.193 148.442Z" fill="#3F3D56"/>
<path d="M195.556 122.431C195.829 129.137 196.879 135.789 198.685 142.258C198.298 143.161 197.897 144.058 197.484 144.949C195.921 148.323 194.171 151.609 192.242 154.792C186.833 163.731 180.08 171.803 172.216 178.733C171.365 179.482 170.502 180.218 169.628 180.942C164.642 174.142 161.951 166.639 160.887 158.917C160.752 157.936 160.642 156.945 160.559 155.959V155.954C160.354 153.558 160.289 151.152 160.362 148.749C160.365 148.557 160.37 148.362 160.378 148.168C160.472 145.599 160.707 143.025 161.06 140.475V140.473C161.1 140.18 161.14 139.886 161.186 139.593C161.315 138.714 161.461 137.835 161.62 136.961C162.545 131.92 163.836 126.952 165.482 122.095V122.093C165.528 121.951 165.574 121.813 165.625 121.674C165.803 121.147 165.983 120.624 166.169 120.102C166.181 120.061 166.195 120.021 166.212 119.982C166.452 119.3 166.697 118.623 166.948 117.952C167.015 117.765 167.085 117.579 167.158 117.392C167.441 116.644 167.729 115.9 168.022 115.167C168.114 114.933 168.208 114.698 168.302 114.467C168.375 114.288 168.445 114.11 168.521 113.934V113.931C168.949 112.884 169.383 111.857 169.822 110.851C171.053 108.021 172.318 105.359 173.552 102.905L173.555 102.902C178.675 92.7425 183.33 86.145 183.33 86.145L200.808 91.7406C198.723 95.399 197.11 100.795 196.226 107.16C195.546 112.22 195.321 117.329 195.556 122.428L195.556 122.431Z" fill="#3F3D56"/>
<path d="M166.506 120.803C166.403 120.566 166.288 120.334 166.169 120.102C165.555 118.926 164.764 117.847 163.823 116.905C163.683 116.764 163.538 116.622 163.387 116.489C161.764 115.011 159.791 113.961 157.65 113.437C155.509 112.912 153.269 112.93 151.137 113.489L151.126 113.494L151.045 113.516L151.064 113.606C151.145 114.028 151.262 114.443 151.414 114.845C151.454 114.954 151.5 115.058 151.546 115.162C151.565 115.21 151.589 115.253 151.611 115.301C151.611 115.301 151.608 115.303 151.613 115.303C151.613 115.306 151.616 115.309 151.616 115.311C151.667 115.41 151.716 115.511 151.77 115.607C151.659 115.503 151.554 115.397 151.452 115.287C151.352 115.186 151.26 115.08 151.169 114.973C150.855 114.611 150.571 114.224 150.32 113.817L150.277 113.745L150.202 113.774C149.186 114.122 148.216 114.592 147.314 115.173L147.217 115.237C146.529 115.684 145.754 115.983 144.941 116.114C144.129 116.245 143.297 116.206 142.501 115.999C141.246 115.679 139.937 115.62 138.658 115.827C137.378 116.034 136.157 116.502 135.07 117.201C134.35 117.665 133.699 118.226 133.136 118.869C133.087 118.925 133.039 118.983 132.99 119.039C132.888 119.162 132.791 119.287 132.697 119.415C131.684 120.754 131.063 122.342 130.9 124.006L130.895 124.067L130.946 124.102C131.857 124.72 132.888 125.144 133.973 125.349C133.292 125.443 132.601 125.46 131.916 125.4H131.913C131.602 125.374 131.292 125.331 130.986 125.272L130.93 125.261H130.927L130.857 125.248L130.868 125.376C130.948 127.004 131.466 128.581 132.368 129.945L132.395 129.983C132.405 129.996 132.414 130.01 132.422 130.025C132.804 130.603 133.122 131.221 133.37 131.866C134 133.471 134.138 135.223 133.769 136.905C133.35 138.704 133.489 140.586 134.168 142.305C134.846 144.025 136.032 145.502 137.572 146.545C138.924 147.466 140.5 148.013 142.137 148.131C142.361 148.149 142.587 148.16 142.814 148.16C144.109 148.164 145.391 147.9 146.576 147.385L146.62 147.369L146.63 147.321C146.858 146.593 147.179 145.896 147.584 145.248C147.451 145.759 147.384 146.284 147.384 146.812V146.988L147.538 146.9C147.67 146.823 147.805 146.74 147.926 146.663C148.653 146.193 149.312 145.626 149.884 144.979C150.108 144.723 150.334 144.475 150.571 144.227L150.574 144.225C151.034 143.74 151.522 143.265 152.028 142.812C153.105 141.855 154.258 140.985 155.476 140.209C156.692 139.436 157.964 138.752 159.282 138.163H159.284C159.433 138.093 159.583 138.027 159.732 137.963C160.388 137.68 161.019 137.345 161.62 136.961C161.641 136.948 161.66 136.937 161.679 136.924C164.283 135.237 166.197 132.691 167.081 129.739C167.965 126.787 167.761 123.62 166.506 120.803Z" fill="#4DB8A0"/>
<path opacity="0.15" d="M134.212 140.688C134.139 141.012 134.083 141.34 134.046 141.67C133.544 140.102 133.471 138.431 133.835 136.827C133.891 136.581 133.933 136.333 133.966 136.083C134.464 137.569 134.549 139.159 134.212 140.688Z" fill="black"/>
<path opacity="0.15" d="M134.416 129.13C133.618 129.239 132.809 129.243 132.01 129.141C131.801 128.751 131.62 128.346 131.47 127.93C132.359 128.524 133.362 128.932 134.416 129.13Z" fill="black"/>
<path opacity="0.15" d="M131.946 125.314C131.652 126.059 131.456 126.839 131.364 127.633C131.118 126.876 130.973 126.091 130.933 125.297L130.926 125.169L131.053 125.193C131.349 125.248 131.647 125.288 131.946 125.314Z" fill="black"/>
<path opacity="0.15" d="M135.139 117.122C136.225 116.422 137.446 115.953 138.725 115.746C140.003 115.539 141.312 115.598 142.566 115.918C143.363 116.127 144.195 116.166 145.008 116.035C145.821 115.904 146.597 115.605 147.285 115.157L147.383 115.094C148.283 114.512 149.252 114.041 150.268 113.692L150.346 113.665L150.388 113.735C150.79 114.392 151.277 114.994 151.837 115.527C151.497 114.9 151.259 114.225 151.131 113.525L151.113 113.433L151.205 113.409C153.205 112.886 155.301 112.837 157.324 113.268C159.346 113.698 161.237 114.596 162.842 115.887C164.447 117.178 165.721 118.826 166.559 120.697C167.398 122.568 167.777 124.608 167.667 126.652C167.243 124.986 166.488 123.42 165.448 122.044C164.407 120.669 163.101 119.511 161.605 118.638C160.109 117.766 158.453 117.196 156.732 116.961C155.012 116.726 153.261 116.831 151.582 117.271L151.49 117.295L151.509 117.387C151.636 118.087 151.874 118.762 152.214 119.388C151.654 118.856 151.168 118.253 150.766 117.596L150.723 117.527L150.646 117.554C149.63 117.903 148.661 118.374 147.76 118.956L147.663 119.019C146.974 119.467 146.198 119.766 145.385 119.897C144.572 120.028 143.74 119.988 142.944 119.78C140.859 119.245 138.65 119.442 136.695 120.337C134.741 121.232 133.16 122.771 132.224 124.69C131.807 124.492 131.403 124.268 131.013 124.021L130.961 123.988L130.967 123.926C131.101 122.555 131.546 121.231 132.268 120.053C132.99 118.875 133.972 117.873 135.139 117.122Z" fill="black"/>
<path d="M235.274 49.0383L235.018 48.8705L234.833 49.1103C233.394 50.9018 232.25 52.9061 231.441 55.0496C231.553 52.5802 231.989 50.1357 232.74 47.778L232.82 47.5302L232.589 47.3996C229.575 45.7114 226.364 44.3943 223.027 43.4774L222.663 43.3815C220.106 42.6872 217.725 41.4675 215.676 39.8019C213.627 38.1362 211.955 36.062 210.771 33.7145C208.019 28.3269 203.672 23.8976 198.309 21.0178C192.947 18.1379 186.824 16.9444 180.757 17.5966H180.755C180.69 17.6019 180.623 17.6099 180.558 17.6179C180.448 17.6285 180.34 17.6418 180.232 17.6552C180.011 17.6845 179.796 17.7138 179.58 17.7458C179.397 17.7724 179.211 17.8017 179.028 17.8337C178.931 17.847 178.837 17.863 178.743 17.8817C178.648 17.8976 178.551 17.9136 178.457 17.9323H178.454C176.646 18.2707 174.873 18.7747 173.159 19.4378H173.156V19.4404L172.722 19.6083C172.275 19.7895 171.832 19.9813 171.392 20.1838C171.292 20.2291 171.195 20.2771 171.096 20.3224C171.069 20.3357 171.039 20.349 171.012 20.365C170.729 20.4982 170.449 20.6368 170.172 20.7833C170.131 20.802 170.091 20.8233 170.05 20.8446L169.792 20.9805C169.224 21.2843 168.665 21.6067 168.117 21.9478C168.071 21.9744 168.028 22.001 167.982 22.0304C167.933 22.0623 167.882 22.0943 167.834 22.1263C167.804 22.1423 167.774 22.1636 167.745 22.1822C167.661 22.2329 167.581 22.2862 167.5 22.3421C167.338 22.446 167.177 22.5526 167.018 22.6619C166.853 22.7711 166.692 22.8857 166.53 23.0003L166.368 23.1148L166.398 23.312C166.425 23.4745 166.449 23.6371 166.479 23.797C166.506 23.9568 166.533 24.114 166.562 24.2713C166.608 24.535 166.659 24.7962 166.711 25.0493C166.746 25.2172 166.778 25.3824 166.816 25.5449C166.851 25.7128 166.888 25.8806 166.929 26.0485C167.007 26.3949 167.09 26.7306 167.179 27.061C167.222 27.2262 167.268 27.3914 167.317 27.554C167.344 27.6526 167.37 27.7512 167.4 27.8471C167.422 27.9137 167.443 27.9803 167.465 28.0469C167.47 28.0682 167.475 28.0922 167.484 28.1162C167.49 28.1388 167.497 28.161 167.505 28.1828C167.535 28.2814 167.564 28.3774 167.594 28.4706C167.61 28.5212 167.626 28.5718 167.645 28.6198C167.683 28.7344 167.723 28.8516 167.764 28.9635C167.807 29.0914 167.853 29.2193 167.898 29.3446C167.909 29.3765 167.92 29.4059 167.931 29.4378C167.939 29.4618 167.947 29.4858 167.958 29.5098C167.968 29.5364 167.979 29.5657 167.99 29.5924C168.036 29.7123 168.082 29.8348 168.13 29.9548C168.146 29.9974 168.162 30.0427 168.181 30.0853C168.618 31.1708 169.154 32.2144 169.784 33.2029C169.086 32.6113 168.415 31.9843 167.769 31.3217C166.772 30.2972 165.854 29.2008 165.022 28.0416C164.954 27.951 164.887 27.8577 164.825 27.7645C164.698 27.586 164.575 27.4074 164.453 27.2262C164.324 27.0397 164.2 26.8452 164.079 26.6534C163.998 26.5255 163.917 26.3949 163.839 26.267C163.761 26.1444 163.688 26.0245 163.618 25.902L163.408 25.5449H163.406V25.5476L163.109 25.8353C162.991 25.9499 162.872 26.0645 162.756 26.1791C159.136 29.7824 156.514 34.2465 155.142 39.1421L155.101 39.2887L155.061 39.4406C154.983 39.7123 154.905 39.9761 154.821 40.2453V40.2479C154.741 40.5144 154.654 40.7808 154.563 41.042C154.479 41.2898 154.393 41.5349 154.301 41.78C154.272 41.8626 154.24 41.9452 154.205 42.0278C154.148 42.1877 154.086 42.3449 154.024 42.5048C153.994 42.5767 153.965 42.6514 153.935 42.7233C153.862 42.8992 153.79 43.075 153.717 43.2482C153.706 43.2749 153.693 43.3042 153.679 43.3308C153.658 43.3841 153.633 43.4374 153.612 43.488C153.555 43.6159 153.496 43.7465 153.44 43.8744C153.399 43.957 153.361 44.0423 153.324 44.1249C153.308 44.1622 153.289 44.1995 153.273 44.2368C153.173 44.4499 153.071 44.6604 152.963 44.8683C152.842 45.1134 152.718 45.3586 152.586 45.5984C152.47 45.8222 152.349 46.0407 152.222 46.2592C152.004 46.6455 151.775 47.0292 151.538 47.4023C151.446 47.5462 151.355 47.69 151.26 47.8339C151.239 47.8686 151.217 47.9032 151.196 47.9352C151.118 48.0604 151.037 48.1803 150.953 48.3029C150.897 48.3855 150.84 48.4681 150.784 48.548C150.689 48.6919 150.59 48.8305 150.487 48.9664C150.46 49.009 150.431 49.049 150.401 49.0889C150.25 49.2968 150.1 49.4993 149.946 49.7018C149.941 49.7044 149.941 49.7071 149.938 49.7098C149.933 49.7098 149.933 49.7124 149.93 49.7151C149.863 49.803 149.795 49.891 149.725 49.9762C149.634 50.1015 149.534 50.224 149.434 50.3439C149.273 50.5465 149.103 50.7516 148.931 50.9515C148.925 50.9568 148.922 50.9621 148.917 50.9648C148.025 52.0021 147.058 52.9745 146.024 53.8745C146.005 53.8905 145.992 53.9065 145.973 53.9198C145.828 54.045 145.682 54.1703 145.531 54.2928C145.469 54.3434 145.407 54.3941 145.345 54.4447C145.243 54.53 145.138 54.6152 145.036 54.6925C145.024 54.7047 145.01 54.7155 144.995 54.7245C144.904 54.7991 144.815 54.8684 144.723 54.9376C144.613 55.0256 144.502 55.1082 144.389 55.1908C143.856 55.5905 143.308 55.9679 142.746 56.3232C142.663 56.3792 142.574 56.4351 142.488 56.4884C142.436 56.5204 142.385 56.5524 142.337 56.579C142.132 56.7042 141.927 56.8268 141.723 56.9441C141.518 57.064 141.308 57.1785 141.1 57.2904C140.656 57.5303 140.217 57.7807 139.789 58.0419C139.573 58.1751 139.358 58.3083 139.145 58.4442C138.299 58.9878 137.485 59.5695 136.702 60.1895C135.919 60.8098 135.169 61.4688 134.453 62.1639C134.364 62.2492 134.275 62.3371 134.186 62.4277C134.008 62.6009 133.836 62.7768 133.672 62.9526C133.408 63.2217 133.155 63.4989 132.904 63.7786C131.583 65.2613 130.414 66.8696 129.413 68.5802C128.911 69.4343 128.454 70.3139 128.045 71.2154C127.735 71.8895 127.452 72.5797 127.196 73.2778C127.027 73.7441 126.868 74.2148 126.72 74.69C126.647 74.9271 126.577 75.167 126.51 75.4068C126.281 76.2194 126.089 77.0401 125.933 77.8635C125.807 78.5243 125.704 79.186 125.626 79.8486C125.586 80.1816 125.553 80.5147 125.524 80.8451C125.454 81.6572 125.419 82.4701 125.418 83.2838C125.413 85.7248 125.713 88.1571 126.31 90.5255C126.442 91.0477 126.589 91.5673 126.749 92.0842C126.83 92.3427 126.916 92.5985 127.003 92.8543C127.221 93.4938 127.462 94.1271 127.727 94.7541C127.886 95.1298 128.053 95.5029 128.228 95.8732C129.341 98.2278 130.761 100.428 132.452 102.417C132.729 102.745 133.015 103.068 133.311 103.385C133.313 103.385 133.311 103.387 133.311 103.387C134.044 104.178 134.82 104.929 135.635 105.636H135.638C135.964 105.921 136.295 106.197 136.632 106.465C136.635 106.462 136.635 106.465 136.635 106.465C136.974 106.737 137.316 106.998 137.666 107.251C137.841 107.376 138.019 107.501 138.2 107.627C138.552 107.874 138.912 108.113 139.28 108.343H139.282C139.649 108.578 140.02 108.802 140.397 109.015C141.154 109.444 141.93 109.846 142.727 110.211L142.862 110.272L142.999 110.211C144.278 109.642 145.596 109.164 146.943 108.78C147.239 108.695 147.538 108.618 147.834 108.543C148.583 108.359 149.337 108.205 150.097 108.08C149.357 108.447 148.642 108.863 147.958 109.324C147.428 109.678 146.905 110.065 146.38 110.491C146.205 110.632 146.03 110.779 145.855 110.928L145.418 111.301L145.965 111.48C146.164 111.543 146.364 111.607 146.563 111.666C146.835 111.751 147.104 111.829 147.368 111.901C147.945 112.06 148.525 112.202 149.108 112.324C149.251 112.354 149.391 112.383 149.534 112.412C149.811 112.465 150.091 112.519 150.372 112.567C150.383 112.57 150.395 112.571 150.407 112.572C150.698 112.62 150.991 112.665 151.282 112.705C151.823 112.783 152.365 112.844 152.906 112.889C152.965 112.897 153.025 112.9 153.087 112.902C153.219 112.913 153.348 112.924 153.48 112.932C153.771 112.95 154.064 112.964 154.358 112.974C154.38 112.974 154.398 112.977 154.42 112.977C154.568 112.982 154.716 112.988 154.864 112.99C154.864 112.99 154.864 112.993 154.867 112.99C155.015 112.993 155.163 112.996 155.312 112.996H156.13C156.284 112.996 156.437 112.998 156.594 112.998C156.809 112.998 157.027 113.001 157.243 113.004C157.299 113.004 157.359 113.006 157.418 113.006C157.763 113.012 158.107 113.02 158.452 113.028C158.474 113.028 158.495 113.03 158.517 113.03C158.862 113.041 159.206 113.052 159.551 113.068C159.627 113.07 159.702 113.073 159.78 113.078C160.111 113.092 160.443 113.108 160.774 113.126C160.868 113.132 160.965 113.14 161.062 113.145C161.313 113.158 161.566 113.174 161.816 113.193C161.965 113.201 162.11 113.211 162.258 113.225C162.856 113.27 163.451 113.321 164.049 113.379C164.249 113.395 164.448 113.417 164.647 113.438C165.181 113.494 165.716 113.555 166.253 113.622C166.492 113.648 166.732 113.68 166.972 113.712C166.999 113.715 167.026 113.718 167.053 113.723C167.349 113.763 167.643 113.803 167.939 113.846C168.133 113.872 168.327 113.902 168.521 113.931C168.72 113.96 168.919 113.99 169.119 114.024C169.226 114.04 169.334 114.059 169.444 114.077C169.703 114.117 169.964 114.16 170.226 114.208C170.249 114.21 170.273 114.214 170.296 114.219C170.851 114.315 171.408 114.416 171.963 114.525C172.289 114.586 172.612 114.65 172.935 114.717C173.188 114.768 173.442 114.821 173.695 114.874C173.738 114.882 173.781 114.893 173.824 114.903C173.834 114.906 173.844 114.908 173.854 114.909C174.236 114.991 174.621 115.077 175.004 115.167C176.332 115.471 177.658 115.809 178.982 116.18C179.287 116.262 179.591 116.35 179.895 116.438C180.025 116.476 180.151 116.513 180.278 116.55C180.542 116.627 180.803 116.705 181.067 116.787C181.299 116.857 181.533 116.929 181.765 117.003C181.91 117.048 182.056 117.094 182.201 117.142C182.427 117.211 182.654 117.283 182.877 117.36C183.068 117.419 183.257 117.48 183.445 117.547C183.715 117.635 183.987 117.725 184.256 117.821C184.334 117.848 184.415 117.874 184.493 117.904C184.822 118.016 185.15 118.13 185.479 118.25C185.8 118.365 186.12 118.482 186.438 118.599C186.659 118.682 186.88 118.762 187.098 118.847C187.343 118.94 187.588 119.034 187.831 119.129C188.181 119.265 188.534 119.404 188.884 119.545C189.207 119.673 189.527 119.804 189.851 119.94C189.91 119.963 189.972 119.987 190.031 120.014C190.311 120.129 190.591 120.249 190.869 120.369C191.049 120.443 191.227 120.52 191.405 120.598C192.181 120.933 192.955 121.281 193.729 121.64H193.732C194.217 121.866 194.71 122.082 195.205 122.287C195.321 122.335 195.437 122.383 195.556 122.428C195.752 122.511 195.951 122.588 196.151 122.668C196.28 122.719 196.409 122.769 196.541 122.817C196.733 122.892 196.927 122.964 197.121 123.033C197.325 123.108 197.527 123.182 197.735 123.252C197.807 123.278 197.88 123.302 197.955 123.329C198.195 123.409 198.435 123.489 198.677 123.566C198.702 123.574 198.726 123.582 198.753 123.59C199.006 123.67 199.259 123.75 199.515 123.824C199.535 123.832 199.556 123.838 199.577 123.843C199.852 123.926 200.132 124.006 200.409 124.083C200.819 124.195 201.231 124.301 201.643 124.4C201.718 124.419 201.794 124.437 201.869 124.453C202.09 124.507 202.308 124.557 202.529 124.605C202.763 124.658 203 124.706 203.235 124.754C203.472 124.802 203.709 124.85 203.943 124.893C204.07 124.917 204.196 124.941 204.32 124.962L204.652 125.018C204.881 125.058 205.109 125.093 205.341 125.13C205.348 125.13 205.354 125.131 205.36 125.133C205.621 125.173 205.88 125.21 206.141 125.242C206.392 125.277 206.642 125.306 206.893 125.335C206.944 125.341 206.998 125.346 207.052 125.351C207.259 125.375 207.466 125.399 207.674 125.418C207.733 125.423 207.792 125.428 207.852 125.434C208.056 125.452 208.261 125.471 208.466 125.484C208.507 125.49 208.548 125.492 208.59 125.492C208.773 125.508 208.956 125.522 209.139 125.53C209.268 125.54 209.395 125.546 209.524 125.554C209.592 125.556 209.656 125.559 209.724 125.562C209.901 125.572 210.079 125.578 210.26 125.583C210.478 125.591 210.696 125.596 210.911 125.602C211.173 125.607 211.437 125.61 211.698 125.61H211.703C211.959 125.61 212.218 125.607 212.474 125.602H212.571L212.853 125.594C212.999 125.591 213.144 125.586 213.287 125.58C213.562 125.57 213.834 125.556 214.106 125.54C214.214 125.535 214.324 125.527 214.432 125.522C214.48 125.519 214.531 125.514 214.58 125.511C214.75 125.5 214.917 125.49 215.086 125.476C215.261 125.463 215.439 125.447 215.614 125.429C215.841 125.407 216.067 125.383 216.293 125.359C216.471 125.341 216.649 125.319 216.824 125.298C216.847 125.296 216.871 125.292 216.894 125.287C217.063 125.269 217.233 125.247 217.4 125.223C217.599 125.197 217.796 125.167 217.993 125.138C218.014 125.135 218.033 125.133 218.055 125.13C218.394 125.077 218.736 125.024 219.078 124.962C219.436 124.898 219.795 124.829 220.15 124.757C220.282 124.73 220.411 124.701 220.543 124.674C220.616 124.658 220.692 124.645 220.762 124.629C220.872 124.605 220.98 124.581 221.088 124.555C221.106 124.552 221.128 124.547 221.147 124.544C221.298 124.512 221.446 124.475 221.597 124.437C221.898 124.365 222.195 124.291 222.491 124.211C222.623 124.179 222.755 124.144 222.881 124.11C222.919 124.099 222.957 124.088 222.992 124.078C223.539 123.926 224.081 123.765 224.619 123.595C224.856 123.521 225.09 123.443 225.324 123.361C225.828 123.19 226.327 123.011 226.822 122.823C226.954 122.775 227.086 122.721 227.218 122.671C227.412 122.593 227.606 122.516 227.797 122.439C227.97 122.367 228.142 122.295 228.317 122.22C228.403 122.186 228.489 122.148 228.576 122.111C228.834 121.999 229.093 121.885 229.349 121.77C229.521 121.69 229.691 121.613 229.86 121.533C230.13 121.405 230.396 121.274 230.663 121.144C230.73 121.109 230.795 121.075 230.86 121.043C231.029 120.957 231.199 120.869 231.371 120.784C231.644 120.64 231.916 120.496 232.185 120.347C232.276 120.299 232.365 120.249 232.457 120.198C232.753 120.033 233.047 119.865 233.338 119.694C233.981 119.313 234.616 118.915 235.242 118.501C235.398 118.399 235.554 118.293 235.708 118.189C235.999 117.992 236.284 117.789 236.57 117.587C236.6 117.565 236.627 117.544 236.656 117.525C236.799 117.422 236.942 117.318 237.084 117.211C237.381 116.99 237.674 116.766 237.968 116.537C237.973 116.534 237.981 116.526 237.989 116.521C238.121 116.417 238.253 116.313 238.383 116.209C238.784 115.887 239.18 115.559 239.568 115.221C239.759 115.058 239.948 114.89 240.133 114.722C240.274 114.597 240.414 114.472 240.551 114.344C240.828 114.086 241.1 113.83 241.37 113.569C241.504 113.441 241.636 113.307 241.771 113.174C241.903 113.041 242.038 112.908 242.17 112.772C242.216 112.727 242.261 112.679 242.307 112.631C242.442 112.489 242.577 112.346 242.711 112.204C242.827 112.082 242.94 111.954 243.056 111.826C243.25 111.613 243.447 111.4 243.638 111.184C243.648 111.172 243.659 111.16 243.67 111.149C243.681 111.136 243.692 111.125 243.7 111.115H243.697C247.612 106.636 250.521 101.386 252.232 95.7114C253.942 90.0372 254.415 84.0684 253.618 78.1999C252.822 72.3314 250.775 66.6972 247.613 61.67C244.45 56.6427 240.245 52.3372 235.274 49.0383Z" fill="#4DB8A0"/>
<g opacity="0.15">
<path d="M180.755 17.5947C181.292 19.5027 182.1 21.3256 183.154 23.0091C181.389 21.5088 179.812 19.8048 178.456 17.9333C179.218 17.7908 179.984 17.678 180.755 17.5947Z" fill="black"/>
<path d="M154.472 47.1014C152.479 48.1778 150.615 49.4739 148.916 50.9651C151.784 47.6099 153.881 43.6776 155.06 39.4411C155.074 39.3902 155.088 39.3389 155.102 39.288L155.142 39.1438C156.559 34.0874 159.308 29.494 163.108 25.8334L163.407 25.5454L163.618 25.9013C164.783 27.8607 166.177 29.6777 167.771 31.3147C165.328 38.1344 160.574 43.8102 154.472 47.1014Z" fill="black"/>
<path d="M168.513 28.9518L168.473 29.096C168.459 29.147 168.445 29.1982 168.431 29.2491C168.352 29.5295 168.268 29.8078 168.182 30.0849C167.33 27.9016 166.732 25.6296 166.399 23.3126L166.367 23.116L166.531 23.0004C168.58 21.5435 170.806 20.3463 173.157 19.437C171.047 22.3085 169.474 25.5311 168.513 28.9518Z" fill="black"/>
<path d="M141.101 57.2933C142.866 56.338 144.517 55.1913 146.025 53.8745C143.013 57.3434 140.854 61.4551 139.717 65.8874C138.58 70.3197 138.496 74.9523 139.472 79.422C140.448 83.8918 142.456 88.0773 145.341 91.6507C148.225 95.224 151.907 98.0881 156.097 100.019L156.233 100.081L156.369 100.02C158.633 99.0085 161.019 98.2916 163.469 97.8873C161.94 98.6578 160.514 99.6151 159.226 100.737L158.79 101.109L159.337 101.288C159.809 101.442 160.281 101.584 160.74 101.71C163.435 102.453 166.222 102.822 169.021 102.806C181.734 102.726 194.547 105.633 207.102 111.449C209.255 112.444 211.489 113.261 213.779 113.89C223.76 116.639 234.415 115.65 243.705 111.112C238.467 117.105 231.619 121.504 223.955 123.8C216.291 126.095 208.126 126.193 200.408 124.082C198.118 123.453 195.884 122.636 193.731 121.64C181.176 115.825 168.363 112.918 155.65 112.998C152.851 113.014 150.064 112.645 147.369 111.902C146.91 111.776 146.438 111.634 145.966 111.48L145.419 111.301L145.855 110.929C147.143 109.807 148.569 108.85 150.098 108.079C147.648 108.484 145.262 109.2 142.998 110.212L142.862 110.273L142.726 110.21C137.694 107.893 133.412 104.239 130.357 99.6541C127.302 95.0696 125.596 89.7355 125.427 84.2472C125.259 78.7589 126.635 73.3322 129.403 68.5728C132.17 63.8133 136.221 59.9082 141.101 57.2933Z" fill="black"/>
</g>
</g>
<defs>
<clipPath id="clip0_53_178">
<rect width="254" height="212" fill="white"/>
</clipPath>
</defs>
</svg>
