<svg width="196" height="212" viewBox="0 0 196 212" fill="none" xmlns="http://www.w3.org/2000/svg">
<g clip-path="url(#clip0_36_182)">
<path d="M8.64834 115.638C8.68905 115.638 8.71469 115.638 8.72342 115.637H13.5925V114.918H8.70571C8.59255 114.922 6.28428 114.987 4.15842 112.401C0.989075 108.547 -1.61371 99.0065 3.98552 75.4415C11.5144 43.7551 5.23497 15.762 2.18565 5.19724C2.0354 4.67455 2.00851 4.12402 2.10712 3.58913C2.20572 3.05425 2.42712 2.54967 2.75381 2.11527C3.0805 1.68087 3.50354 1.32855 3.98949 1.08615C4.47543 0.84375 5.01098 0.717914 5.55381 0.718584H78.268C78.8209 0.719419 79.3658 0.850879 79.8584 1.10229C80.3511 1.3537 80.7776 1.71798 81.1034 2.16555C82.3952 3.94604 84.1678 7.36663 85.2772 13.5513L85.9836 13.4242C84.8502 7.10489 83.0199 3.58391 81.684 1.74142C81.2914 1.20228 80.7774 0.763515 80.1839 0.460735C79.5903 0.157956 78.9338 -0.000301238 78.2677 -0.00118807H5.55302C4.8988 -0.00184342 4.2534 0.149973 3.66782 0.442262C3.08223 0.734552 2.57251 1.15931 2.17894 1.68296C1.78536 2.2066 1.51872 2.8148 1.40008 3.45947C1.28144 4.10415 1.31406 4.76764 1.49536 5.39751C4.52882 15.9072 10.775 43.7553 3.28625 75.2754C-2.39177 99.1708 0.337916 108.92 3.62756 112.888C5.7973 115.506 8.18806 115.638 8.64834 115.638Z" fill="#E6E6E6"/>
<path d="M21.7498 128.767C21.7905 128.767 21.8161 128.767 21.8248 128.765H26.6939V128.046H21.8074C21.6937 128.049 19.386 128.115 17.2601 125.529C14.0908 121.675 11.488 112.135 17.0872 88.5698C24.6161 56.8833 18.3367 28.8903 15.2873 18.3255C15.1371 17.8028 15.1102 17.2523 15.2088 16.7174C15.3074 16.1825 15.5288 15.6779 15.8555 15.2435C16.1822 14.8091 16.6052 14.4568 17.0912 14.2144C17.5771 13.972 18.1127 13.8462 18.6555 13.8468H91.3697C91.9225 13.8475 92.4674 13.9788 92.9601 14.2301C93.4528 14.4814 93.8795 14.8455 94.2054 15.293C95.4971 17.0735 97.2698 20.4941 98.3791 26.6788L99.0858 26.5516C97.9524 20.2323 96.1221 16.7113 94.7862 14.8689C94.3936 14.3297 93.8797 13.891 93.2861 13.5882C92.6925 13.2854 92.036 13.1271 91.37 13.1263H18.6547C18.0004 13.1256 17.3549 13.2774 16.7692 13.5697C16.1836 13.8621 15.6738 14.2869 15.2802 14.8106C14.8866 15.3344 14.62 15.9427 14.5014 16.5875C14.3829 17.2323 14.4156 17.8958 14.597 18.5258C17.6305 29.0355 23.8767 56.8836 16.3879 88.4037C10.7099 112.299 13.4396 122.048 16.7292 126.016C18.899 128.634 21.2897 128.767 21.7498 128.767Z" fill="#CCCCCC"/>
<path d="M34.8515 141.895C34.8922 141.895 34.9178 141.895 34.9265 141.894H106.52C107.209 141.895 107.888 141.726 108.497 141.403C109.107 141.08 109.628 140.612 110.015 140.041C110.402 139.469 110.643 138.812 110.718 138.125C110.792 137.438 110.698 136.744 110.443 136.102C107.845 129.599 104.347 113.996 110.108 82.5674C116.911 45.4554 110.821 32.0431 107.887 27.9989C107.495 27.4597 106.981 27.021 106.387 26.7182C105.794 26.4154 105.137 26.2571 104.471 26.2563H31.7564C31.1022 26.2556 30.4569 26.4074 29.8714 26.6997C29.2858 26.992 28.7762 27.4167 28.3826 27.9402C27.989 28.4638 27.7224 29.0719 27.6037 29.7166C27.485 30.3612 27.5176 31.0246 27.6988 31.6544C30.7322 42.1641 36.9784 70.0122 29.4896 101.532C23.8116 125.428 26.541 135.177 29.831 139.145C32.0007 141.763 34.3914 141.895 34.8515 141.895ZM104.471 26.9752C105.024 26.976 105.569 27.1075 106.062 27.3589C106.554 27.6104 106.981 27.9748 107.307 28.4225C110.187 32.3914 116.156 45.5998 109.403 82.4386C103.9 112.462 106.569 128.339 109.777 136.371C109.993 136.901 110.075 137.476 110.013 138.045C109.952 138.615 109.75 139.16 109.426 139.631C109.105 140.107 108.672 140.497 108.166 140.766C107.659 141.036 107.094 141.176 106.521 141.176H34.9091C34.7959 141.181 32.4877 141.245 30.3618 138.659C27.1925 134.805 24.5897 125.265 30.1889 101.7C37.7178 70.0133 31.4384 42.0203 28.389 31.4555C28.2388 30.9328 28.2119 30.3823 28.3105 29.8474C28.4091 29.3125 28.6305 28.8079 28.9572 28.3735C29.2839 27.9391 29.7069 27.5868 30.1929 27.3444C30.6788 27.102 31.2144 26.9762 31.7572 26.9768L104.471 26.9752Z" fill="white"/>
<path d="M97.3465 58.6281H40.2731C39.5115 58.6281 38.7811 58.3249 38.2425 57.7852C37.704 57.2456 37.4014 56.5137 37.4014 55.7506C37.4014 54.9874 37.704 54.2555 38.2425 53.7158C38.7811 53.1762 39.5115 52.873 40.2731 52.873H97.3465C98.1081 52.873 98.8385 53.1762 99.3771 53.7158C99.9156 54.2555 100.218 54.9874 100.218 55.7506C100.218 56.5137 99.9156 57.2456 99.3771 57.7852C98.8385 58.3249 98.1081 58.6281 97.3465 58.6281Z" fill="#4DB8A0"/>
<path d="M97.3465 70.8573H40.2731C39.5115 70.8573 38.7811 70.5541 38.2425 70.0145C37.704 69.4749 37.4014 68.743 37.4014 67.9798C37.4014 67.2166 37.704 66.4847 38.2425 65.9451C38.7811 65.4055 39.5115 65.1023 40.2731 65.1023H97.3465C98.1081 65.1023 98.8385 65.4055 99.3771 65.9451C99.9156 66.4847 100.218 67.2166 100.218 67.9798C100.218 68.743 99.9156 69.4749 99.3771 70.0145C98.8385 70.5541 98.1081 70.8573 97.3465 70.8573Z" fill="#CCCCCC"/>
<path d="M97.3465 83.0866H40.2731C39.5115 83.0866 38.7811 82.7834 38.2425 82.2438C37.704 81.7041 37.4014 80.9722 37.4014 80.2091C37.4014 79.4459 37.704 78.714 38.2425 78.1744C38.7811 77.6347 39.5115 77.3316 40.2731 77.3316H97.3465C98.1081 77.3316 98.8385 77.6347 99.3771 78.1744C99.9156 78.714 100.218 79.4459 100.218 80.2091C100.218 80.9722 99.9156 81.7041 99.3771 82.2438C98.8385 82.7834 98.1081 83.0866 97.3465 83.0866Z" fill="#CCCCCC"/>
<path d="M101.654 95.3156H44.5803C43.8187 95.3156 43.0882 95.0124 42.5497 94.4728C42.0112 93.9331 41.7086 93.2012 41.7086 92.4381C41.7086 91.6749 42.0112 90.943 42.5497 90.4034C43.0882 89.8637 43.8187 89.5606 44.5803 89.5606H101.654C102.415 89.5606 103.146 89.8637 103.684 90.4034C104.223 90.943 104.525 91.6749 104.525 92.4381C104.525 93.2012 104.223 93.9331 103.684 94.4728C103.146 95.0124 102.415 95.3156 101.654 95.3156Z" fill="#CCCCCC"/>
<path d="M101.654 107.545H44.5803C44.2032 107.545 43.8297 107.47 43.4813 107.326C43.1329 107.181 42.8164 106.969 42.5497 106.702C42.283 106.435 42.0715 106.118 41.9272 105.769C41.7829 105.419 41.7086 105.045 41.7086 104.667C41.7086 104.289 41.7829 103.915 41.9272 103.566C42.0715 103.217 42.283 102.9 42.5497 102.633C42.8164 102.365 43.1329 102.153 43.4813 102.009C43.8297 101.864 44.2032 101.79 44.5803 101.79H101.654C102.031 101.79 102.404 101.864 102.753 102.009C103.101 102.153 103.418 102.365 103.684 102.633C103.951 102.9 104.162 103.217 104.307 103.566C104.451 103.915 104.525 104.289 104.525 104.667C104.525 105.045 104.451 105.419 104.307 105.769C104.162 106.118 103.951 106.435 103.684 106.702C103.418 106.969 103.101 107.181 102.753 107.326C102.404 107.47 102.031 107.545 101.654 107.545Z" fill="#CCCCCC"/>
<path d="M67.1946 46.3988H40.2731C39.5115 46.3988 38.7811 46.0956 38.2425 45.556C37.704 45.0163 37.4014 44.2844 37.4014 43.5213C37.4014 42.7581 37.704 42.0262 38.2425 41.4866C38.7811 40.9469 39.5115 40.6438 40.2731 40.6438H67.1946C67.9562 40.6438 68.6866 40.9469 69.2252 41.4866C69.7637 42.0262 70.0662 42.7581 70.0662 43.5213C70.0662 44.2844 69.7637 45.0163 69.2252 45.556C68.6866 46.0956 67.9562 46.3988 67.1946 46.3988Z" fill="#4DB8A0"/>
<path d="M63.718 127.263C64.2975 124.805 67.0195 123.999 69.2453 124.089C70.6514 124.184 72.0462 124.405 73.413 124.75C74.843 125.07 76.2592 125.45 77.6694 125.853C80.2534 126.591 82.8105 127.484 85.4371 128.061C87.6237 128.542 89.9997 128.824 92.1803 128.16C94.2763 127.522 96.0545 125.957 96.625 123.792C97.1625 121.752 96.4246 119.522 94.4518 118.589C92.654 117.739 90.3804 118.172 89.4887 120.094C88.484 122.262 89.4887 124.626 91.0797 126.195C91.9844 127.046 92.9755 127.801 94.0367 128.446C95.1137 129.182 96.3125 129.72 97.5773 130.036C99.6537 130.48 102.127 129.826 103.198 127.837C103.436 127.387 103.579 126.893 103.619 126.385C103.682 125.694 102.605 125.698 102.542 126.385C102.36 128.365 100.047 129.291 98.317 129.075C97.1492 128.881 96.0339 128.447 95.0414 127.801C94.0834 127.241 93.1757 126.599 92.3283 125.882C90.861 124.611 89.4855 122.516 90.4711 120.531C91.2735 118.915 93.3655 118.93 94.6377 119.973C96.1784 121.236 95.9038 123.528 94.8875 125.027C93.7623 126.688 91.7226 127.385 89.7996 127.459C87.711 127.54 85.638 127.06 83.6412 126.491C81.16 125.785 78.7034 124.995 76.2101 124.33C74.7946 123.953 73.3683 123.612 71.9272 123.348C70.5647 123.047 69.1652 122.95 67.7743 123.06C65.5271 123.32 63.2337 124.63 62.6803 126.978C62.5217 127.653 63.5594 127.941 63.7188 127.265L63.718 127.263Z" fill="#BCBCBC"/>
<path d="M103.285 127.518C103.149 127.404 103.049 127.253 102.999 127.083C102.948 126.912 102.949 126.731 103.001 126.562C103.054 126.392 103.155 126.242 103.292 126.13C103.43 126.017 103.597 125.949 103.774 125.932C105.731 125.742 107.707 125.945 109.586 126.529L128.724 132.451C128.971 132.528 129.201 132.653 129.401 132.818C129.601 132.984 129.766 133.188 129.887 133.417C130.008 133.647 130.083 133.899 130.107 134.157C130.131 134.416 130.104 134.677 130.027 134.925C129.951 135.173 129.826 135.404 129.661 135.604C129.495 135.804 129.292 135.969 129.063 136.091C128.834 136.212 128.583 136.287 128.325 136.311C128.067 136.335 127.806 136.308 127.558 136.231L108.421 130.31C106.541 129.73 104.795 128.781 103.285 127.518Z" fill="#474747"/>
<path d="M146.285 69.7953C146.285 69.7953 150.089 77.8776 149.481 80.3174C149.125 81.8005 149.286 83.3611 149.937 84.7397L156.938 84.4345L163.482 78.1825C163.482 78.1825 153.59 71.3212 154.199 67.9653C154.807 64.6093 146.285 69.7953 146.285 69.7953Z" fill="#ED9DA0"/>
<path d="M163.938 82.6047L166.982 101.514C166.982 101.514 166.982 118.594 166.069 118.899C165.155 119.204 161.199 118.899 161.199 118.899V99.6846L162.417 82.9099L163.938 82.6047Z" fill="#4DB8A0"/>
<path opacity="0.1" d="M163.938 82.6047L166.982 101.514C166.982 101.514 166.982 118.594 166.069 118.899C165.155 119.204 161.199 118.899 161.199 118.899V99.6846L162.417 82.9099L163.938 82.6047Z" fill="black"/>
<path d="M182.2 193.622L184.635 203.077L188.288 200.332L191.636 192.707L187.375 187.522L182.2 193.622Z" fill="#ED9DA0"/>
<path d="M191.636 191.487C191.636 191.487 187.679 194.536 187.679 197.587C187.679 197.587 185.549 200.941 183.114 200.636V207.041C183.114 207.041 175.504 211.006 181.287 211.921C187.07 212.836 191.332 205.516 191.332 205.516C191.332 205.516 196.81 196.671 195.897 195.451C194.984 194.231 191.636 191.487 191.636 191.487Z" fill="#090814"/>
<path d="M163.916 117.457C163.916 117.457 169.723 123.779 166.983 133.538C166.983 133.538 163.939 155.497 173.679 163.731C183.419 171.966 189.81 189.961 189.81 189.961L182.505 196.67C182.505 196.67 174.592 178.676 166.374 171.662C158.156 164.649 157.243 156.718 157.243 156.718V128.964L155.72 117.374L163.916 117.457Z" fill="white"/>
<path d="M156.329 200.636L153.285 203.991L154.503 206.736L158.156 207.957L164.547 205.517L163.634 201.857L156.329 200.636Z" fill="#ED9DA0"/>
<path d="M164.547 203.991C164.547 203.991 157.504 207.651 155.743 206.126C155.23 205.695 154.81 205.164 154.508 204.565C154.206 203.967 154.029 203.313 153.987 202.643C153.987 202.643 150.461 203.076 148.113 204.6C145.766 206.124 142.877 206.654 141.071 207.955C139.265 209.256 139.31 211.615 144.886 211.92C150.461 212.225 164.547 211.615 164.547 210.09L164.547 203.991Z" fill="#090814"/>
<path d="M144.763 121.339C144.763 121.339 140.806 139.028 147.806 159.159C147.806 159.159 151.154 170.444 152.676 173.798C154.198 177.152 155.72 200.942 155.112 201.857C155.112 201.857 159.982 205.822 164.243 203.077C164.243 203.077 163.939 189.048 164.548 187.828C165.157 186.608 165.765 175.933 162.113 167.088C158.46 158.244 161.505 136.895 161.505 136.895C161.505 136.895 168.807 125.914 163.329 119.509L144.763 121.339Z" fill="white"/>
<path d="M149.329 71.9305C154.035 71.9305 157.851 68.1071 157.851 63.3907C157.851 58.6743 154.035 54.8509 149.329 54.8509C144.622 54.8509 140.806 58.6743 140.806 63.3907C140.806 68.1071 144.622 71.9305 149.329 71.9305Z" fill="#ED9DA0"/>
<path d="M165.156 119.204C165.156 119.204 162.721 122.864 160.895 121.034C159.607 119.744 151.365 122.546 146.609 124.312C144.618 125.05 143.24 125.609 143.24 125.609C143.24 125.609 143.109 121.382 142.722 116.029C142.278 109.886 141.499 102.255 140.196 97.8556C137.761 89.6207 143.849 86.2658 143.849 86.2658C143.849 86.2658 149.023 80.1664 148.72 79.2512C148.416 78.3359 162.416 73.7613 162.416 73.7613C163.938 74.0665 165.156 87.791 165.156 87.791C165.156 87.791 162.416 98.7706 160.895 105.481C159.373 112.191 165.156 119.204 165.156 119.204Z" fill="#4DB8A0"/>
<path d="M138.98 119.509C138.98 119.509 132.284 126.218 128.936 128.049C125.587 129.879 123.761 135.978 126.501 137.198C129.24 138.418 135.327 130.488 135.327 130.488L144.154 123.168L138.98 119.509Z" fill="#ED9DA0"/>
<path d="M140.245 58.2892C139.467 58.3586 139.022 59.3412 139.273 60.083C139.525 60.8247 140.247 61.3098 140.984 61.5689C141.722 61.828 142.51 61.917 143.249 62.1739C143.983 62.4431 144.665 62.8396 145.262 63.3454C147.366 65.0719 148.612 67.7025 149.008 70.3982C149.404 73.094 149.008 75.8555 148.261 78.4763C147.865 79.8642 147.218 81.3856 145.865 81.8783C147.344 81.5121 148.791 81.0207 150.187 80.4094C151.211 79.9262 152.172 79.3147 153.207 78.8556C154.738 78.2296 156.345 77.8073 157.986 77.5997C159.138 77.4195 160.356 77.2818 161.438 77.7184C162.101 78.0277 162.712 78.4403 163.247 78.9409L166.728 81.8717C166.789 80.5976 166.829 79.3228 166.848 78.0471C166.865 76.9384 166.861 75.7977 166.453 74.7672C166.051 73.7494 165.286 72.92 164.775 71.9528C163.509 69.5585 163.922 66.6764 163.945 63.9682C163.97 61.1641 163.519 58.3059 162.224 55.8202C160.929 53.3345 158.716 51.2531 156.018 50.5087C152.381 49.5047 148.547 50.9977 145.205 52.7485C144.418 53.1235 143.685 53.6018 143.024 54.1709C142.322 54.89 141.725 55.7055 141.251 56.593L139.595 59.3719" fill="#090814"/>
<path opacity="0.1" d="M161.808 90.8393C161.808 90.8393 156.025 112.799 155.416 114.324C154.978 115.419 149.822 121.244 146.611 124.313C144.62 125.05 143.241 125.608 143.241 125.608C143.241 125.608 143.11 121.38 142.724 116.028C145.201 113.273 147.807 110.663 147.807 110.663C147.807 110.663 150.546 93.8888 150.242 87.4834C149.937 81.078 156.329 79.554 156.329 79.554C163.634 80.4698 161.808 90.8393 161.808 90.8393Z" fill="black"/>
<path d="M155.416 78.3348C155.416 78.3348 149.024 79.8597 149.328 86.2642C149.633 92.6688 146.893 109.444 146.893 109.444C146.893 109.444 136.545 119.814 137.458 121.034C138.371 122.254 142.283 124.652 143.218 124.978C144.154 125.304 153.895 114.628 154.503 113.104C155.111 111.579 160.894 89.6194 160.894 89.6194C160.894 89.6194 162.721 79.2498 155.416 78.3348Z" fill="#4DB8A0"/>
</g>
<defs>
<clipPath id="clip0_36_182">
<rect width="196" height="212" fill="white"/>
</clipPath>
</defs>
</svg>
