<svg width="291" height="231" viewBox="0 0 291 231" fill="none" xmlns="http://www.w3.org/2000/svg">
<g clip-path="url(#clip0_23_195)">
<path d="M62.437 38.8797C62.4379 34.4811 63.6559 30.1689 65.9557 26.4217C68.2554 22.6746 71.547 19.6392 75.4649 17.6526C79.3828 15.666 83.7737 14.8059 88.1501 15.1678C92.5265 15.5298 96.7171 17.0996 100.257 19.703C103.796 22.3063 106.546 25.8414 108.201 29.9156C109.856 33.9898 110.352 38.4438 109.632 42.783C108.913 47.1222 107.007 51.1768 104.126 54.4966C101.246 57.8164 97.5026 60.2715 93.313 61.5893L89.7696 64.4481L96.1287 86.7421L88.7199 91.9929L65.3061 72.449C65.3061 72.449 70.3641 65.9958 73.0768 58.718C69.8042 56.5498 67.1193 53.6027 65.2624 50.1405C63.4056 46.6783 62.4347 42.8089 62.4366 38.8787L62.437 38.8797Z" fill="#ED9DA0"/>
<path d="M168.574 99.8525L151.552 159.102L134.337 147.135L154.622 95.441C152.853 92.1592 152.413 87.846 153.757 83.5822C156.108 76.1219 163.011 71.6542 169.174 73.603C175.338 75.5519 178.429 83.1796 176.078 90.6398C174.734 94.9036 171.902 98.1822 168.572 99.8536L168.574 99.8525Z" fill="#ED9DA0"/>
<path d="M111.766 123.248H50.3649V194.881H111.766V123.248Z" fill="#ED9DA0"/>
<path d="M46.5953 167.988L32.6681 210.379L31.8384 230.648H134.814L114.954 167.988H46.5953Z" fill="#090814"/>
<path d="M70.9744 66.1266L56.3782 99.5148L57.8224 156.898H107.156L108.704 96.0104L90.3892 67.7331L70.9744 66.1266Z" fill="#4DB8A0"/>
<path d="M41.6507 79.4127C41.6507 79.4127 37.3775 202.193 25.9024 222.454C25.9024 222.454 41.7581 225.222 45.7918 219.498C49.8255 213.773 65.3795 175.662 65.5488 167.222C65.7181 158.782 70.5904 66.0858 70.5904 66.0858L41.65 79.4127H41.6507Z" fill="#E6E6E6"/>
<path d="M89.1007 71.1074L90.3892 67.7335L123.105 80.7474C123.105 80.7474 121.579 203.447 134.823 215.847C134.823 215.847 112.697 214.79 111.962 214.282C111.227 213.774 95.1634 150.326 95.1634 150.326C95.1634 150.326 102.821 120.933 103.412 108.383C104.003 95.8325 89.1003 71.1085 89.1003 71.1085L89.1007 71.1074Z" fill="#E6E6E6"/>
<path d="M114.804 83.1459L123.105 80.7471L142.193 119.466L150.373 98.2586L170.582 104.044C170.582 104.044 161.396 163.758 147.508 160.545C133.62 157.332 114.803 124.541 114.803 124.541V83.1459H114.804Z" fill="#E6E6E6"/>
<path d="M32.9745 201.39L5.11786 160.825L17.9245 149.539L44.1021 193.688C47.4973 194.255 50.8907 196.38 53.2368 199.78C57.3414 205.732 56.6839 213.312 51.7693 216.715C46.8548 220.117 39.5379 218.053 35.4333 212.103C33.0876 208.702 32.3037 204.772 32.9745 201.39Z" fill="#ED9DA0"/>
<path d="M46.5953 82.8358L41.6507 79.4124L1.20263 155.94C1.20263 155.94 -2.08054 160.554 2.20193 167.989C6.48439 175.425 28.4701 198.194 28.4701 198.194L45.7932 188.393L28.148 155.457L44.7789 126.642L46.5939 82.8361L46.5953 82.8358Z" fill="#E6E6E6"/>
<path d="M96.9201 6.88975C102.233 8.75974 105.273 9.82954 108.058 12.5184C112.761 17.0575 113.538 23.1232 114.259 28.759C114.823 33.1686 115.553 38.869 112.97 45.3824C112.09 47.6052 108.769 59.0116 100.602 60.2628C98.9985 60.5087 95.2336 60.5729 96.3181 59.7702C106.364 52.3419 109.704 46.3536 109.353 34.9046C109.134 27.7903 98.2823 20.1099 91.8391 18.7296C90.2911 18.4129 88.6931 18.4347 87.1543 18.7935C85.6155 19.1524 84.1722 19.8399 82.9231 20.809C77.5074 25.2624 77.7379 43.6784 72.027 47.5278C69.6784 49.1113 71.2428 37.9662 69.5885 39.7735C66.3236 43.3393 68.4175 48.7965 69.0048 50.8798C71.7879 60.7454 74.7035 53.4496 77.419 61.874C78.8808 66.403 65.9868 71.1089 59.1825 72.3927C52.4741 73.6586 49.5825 77.3229 53.1072 74.3882C43.6246 70.4019 63.3436 57.6718 64.2295 54.0638C65.4961 48.9077 60.2366 46.7093 59.1829 38.5761C58.4624 33.0141 57.9559 25.0602 59.918 19.9604C61.7692 15.1452 63.3769 10.966 67.5831 7.1762C68.5957 6.26737 76.7508 0.0801765 85.3984 -0.0951357C89.3795 -0.175084 92.3062 5.26139 96.9204 6.88652L96.9201 6.88975Z" fill="#090814"/>
<path d="M164.511 77.8087C164.466 77.8087 164.421 77.8087 164.375 77.8055C163.814 77.7625 163.274 77.5737 162.808 77.2578C162.341 76.9419 161.965 76.5098 161.716 76.004C159.623 72.2431 156.971 68.8222 153.853 65.8581C152.007 64.1014 150.079 62.4669 148.214 60.8866C143.403 56.8114 138.872 52.9732 136.356 47.6697C130.873 36.1052 137.331 19.998 146.557 12.7744C156.905 4.672 170.516 3.40178 183.683 3.23543C185.052 3.21823 186.421 3.20963 187.791 3.20963C211.576 3.22702 235.29 5.81005 258.523 10.914C266.281 12.6191 274.403 14.7082 280.928 19.7779C287.416 24.8175 291.359 32.7535 290.974 39.9979C290.413 50.5715 281.003 58.4724 272.434 60.5378C264.268 62.5049 255.784 61.1756 246.802 59.7677C244.82 59.4572 242.769 59.1356 240.742 58.8564C218.709 55.8226 177.319 65.1737 175.566 65.5731L173.828 65.9692L167.09 76.303C166.822 76.7523 166.446 77.1263 165.995 77.3902C165.545 77.654 165.034 77.799 164.513 77.8116L164.511 77.8087Z" fill="#4DB8A0"/>
<path d="M214.866 35.9636C214.708 35.9636 214.552 35.9326 214.407 35.8723C214.262 35.812 214.13 35.7236 214.019 35.6122C213.907 35.5007 213.819 35.3684 213.759 35.2229C213.699 35.0773 213.668 34.9213 213.668 34.7637V28.0011C213.668 27.6829 213.794 27.3777 214.019 27.1527C214.243 26.9277 214.548 26.8013 214.866 26.8013C215.183 26.8013 215.488 26.9277 215.713 27.1527C215.937 27.3777 216.064 27.6829 216.064 28.0011V34.7637C216.064 34.9213 216.033 35.0773 215.972 35.2229C215.912 35.3686 215.824 35.5008 215.713 35.6123C215.601 35.7237 215.469 35.8121 215.324 35.8724C215.179 35.9327 215.023 35.9637 214.866 35.9636Z" fill="white"/>
<path d="M214.866 19.9686C215.466 19.9706 216.055 20.1265 216.578 20.4215C217.1 20.7165 217.539 21.1407 217.851 21.6536L217.854 21.659L227.563 37.8996L227.573 37.9168C227.877 38.4453 228.038 39.0444 228.04 39.6545C228.041 40.2646 227.883 40.8645 227.582 41.3946C227.28 41.9246 226.845 42.3664 226.32 42.6759C225.795 42.9854 225.199 43.152 224.59 43.1589H205.142C204.533 43.1526 203.935 42.9863 203.41 42.6767C202.884 42.367 202.448 41.9249 202.147 41.3942C201.845 40.8635 201.687 40.2628 201.689 39.652C201.691 39.0412 201.852 38.4416 202.158 37.9129L202.167 37.8964L211.857 21.6913C211.864 21.6784 211.872 21.6656 211.879 21.6529C212.192 21.1399 212.631 20.7157 213.153 20.4208C213.676 20.1259 214.266 19.9703 214.866 19.9686ZM215.801 22.8941C215.704 22.7352 215.569 22.6036 215.407 22.5117C215.246 22.4197 215.063 22.3704 214.878 22.3685C214.692 22.3665 214.509 22.4119 214.345 22.5004C214.182 22.5889 214.044 22.7176 213.944 22.8744L213.933 22.8926L204.23 39.1196C204.136 39.2851 204.087 39.4722 204.087 39.6625C204.087 39.8528 204.137 40.0398 204.231 40.2051C204.325 40.3703 204.461 40.5082 204.624 40.6051C204.788 40.7019 204.974 40.7545 205.164 40.7576H224.568C224.758 40.7544 224.943 40.7017 225.107 40.6049C225.27 40.508 225.406 40.3703 225.5 40.2052C225.594 40.0401 225.644 39.8533 225.644 39.6632C225.644 39.4731 225.595 39.2861 225.502 39.1207L215.801 22.8941Z" fill="white"/>
<path d="M214.878 39.5627H214.866C214.548 39.5627 214.244 39.4363 214.019 39.2113C213.794 38.9863 213.668 38.6812 213.668 38.363C213.668 38.0448 213.794 37.7396 214.019 37.5146C214.244 37.2896 214.548 37.1632 214.866 37.1632H214.878C215.195 37.1632 215.5 37.2896 215.725 37.5146C215.949 37.7396 216.075 38.0448 216.075 38.363C216.075 38.6812 215.949 38.9863 215.725 39.2113C215.5 39.4363 215.195 39.5627 214.878 39.5627Z" fill="white"/>
</g>
<defs>
<clipPath id="clip0_23_195">
<rect width="291" height="231" fill="white"/>
</clipPath>
</defs>
</svg>
