<svg width="111" height="160" viewBox="0 0 111 160" fill="none" xmlns="http://www.w3.org/2000/svg">
<path d="M42.7379 29.4129C49.153 29.4129 54.3535 24.2099 54.3535 17.7915C54.3535 11.3732 49.153 6.17017 42.7379 6.17017C36.3229 6.17017 31.1224 11.3732 31.1224 17.7915C31.1224 24.2099 36.3229 29.4129 42.7379 29.4129Z" fill="#090814"/>
<path d="M69.4735 112.779L75.682 144.118L81.8902 142.864L75.682 107.013L69.4735 112.779Z" fill="#9F616A"/>
<path d="M77.8847 142.515C77.8847 142.515 74.3491 143.711 74.8152 144.516C75.2814 145.32 75.2814 150.33 73.6791 152.133C72.0767 153.935 68.0707 159.546 72.6768 159.747C77.2829 159.947 81.8899 156.943 81.8899 156.943V151.732L82.6911 156.541H83.4922V151.131C83.4922 151.131 85.4948 147.725 84.2934 145.721C83.092 143.717 82.3081 141.971 80.7974 142.143C79.2868 142.315 77.8847 142.515 77.8847 142.515Z" fill="#090814"/>
<path d="M45.0411 131.777L44.0388 145.722H51.048V131.777H45.0411Z" fill="#9F616A"/>
<path d="M45.6417 144.519C45.6417 144.519 43.6391 144.318 43.0382 147.124C42.4373 149.929 37.0296 153.936 35.0274 154.537C33.0252 155.139 33.0248 157.142 35.6283 157.543C38.2319 157.944 44.8406 158.144 46.4429 155.94C47.5306 154.502 48.811 153.221 50.2481 152.133L49.2458 157.744H51.0482C51.0482 157.744 52.6503 152.334 54.2524 150.531C55.8545 148.728 51.0482 144.52 50.247 144.52L45.6417 144.519Z" fill="#090814"/>
<path d="M35.8284 58.3599C35.8284 58.3599 34.4265 62.167 32.0232 62.768C29.6199 63.369 11.7962 67.5768 11.7962 67.5768C11.7962 67.5768 -3.82471 67.9775 0.981645 71.3839C5.788 74.7903 13.5986 71.3839 13.5986 71.3839C13.5986 71.3839 36.4291 68.5787 38.2317 65.5741C39.4182 63.5286 40.4234 61.3831 41.2357 59.1621L35.8284 58.3599Z" fill="#9F616A"/>
<path d="M43.4385 41.5291C43.4385 41.5291 32.0232 60.1634 33.4251 60.5643C34.827 60.9652 47.8444 65.1727 48.4453 63.5698C49.0462 61.9669 49.046 54.5532 49.046 54.5532L43.4385 41.5291Z" fill="#F2F2F2"/>
<path d="M73.078 37.1214L98.9128 50.3451C98.9128 50.3451 113.532 54.1522 110.328 57.1577C107.124 60.1632 96.7097 54.5524 96.7097 54.5524L68.0708 41.5284L73.078 37.1214Z" fill="#9F616A"/>
<path d="M40.0341 26.7016C40.0341 26.7016 45.0409 34.3156 44.6402 36.119C44.6402 36.119 45.0406 37.3213 44.4399 38.1227C43.8392 38.924 44.0395 43.7339 44.0395 43.7339L46.0421 46.539L48.6456 37.9232L49.8472 28.7063C49.8472 28.7063 47.1437 24.9995 47.5442 23.1962C47.9446 21.3929 40.0341 26.7016 40.0341 26.7016Z" fill="#9F616A"/>
<path d="M55.8552 69.9815C55.8552 69.9815 44.6401 96.3971 44.6401 108.02C44.6401 119.643 40.4345 132.851 43.6379 134.083C46.8413 135.316 63.0646 135.492 63.4644 134.083C63.8643 132.675 61.4618 75.4408 60.2602 73.1513C59.0585 70.8618 55.8552 69.9815 55.8552 69.9815Z" fill="#F2F2F2"/>
<path d="M42.6375 29.3131C46.7299 29.3131 50.0474 25.9939 50.0474 21.8995C50.0474 17.805 46.7299 14.4858 42.6375 14.4858C38.5452 14.4858 35.2277 17.805 35.2277 21.8995C35.2277 25.9939 38.5452 29.3131 42.6375 29.3131Z" fill="#9F616A"/>
<path d="M44.8408 41.1589L44.3045 37.119C44.3045 37.119 42.6377 39.1898 42.6377 40.8009C42.6377 42.4119 41.6355 48.1403 45.842 51.7208C50.0484 55.3013 44.8945 58.3894 50.7023 79.3339C50.7023 79.3339 59.8607 134.067 62.6654 134.783C65.47 135.499 74.0806 134.783 74.6816 133.887C75.2825 132.991 73.6787 109.183 73.6787 109.183C73.6787 109.183 78.0845 130.306 79.6867 130.306C81.2888 130.306 82.2902 127.263 81.8897 127.085C81.4892 126.906 79.0859 113.122 78.0845 108.826C77.0831 104.529 77.4838 68.1895 77.4838 68.1895C77.4838 68.1895 80.688 63.5352 69.6733 54.4056C69.6733 54.4056 62.6639 36.1464 62.2634 36.1464C61.8629 36.1464 54.0534 26.3007 54.0534 26.3007C54.0534 26.3007 49.6475 26.3007 48.8464 28.628C48.0452 30.9552 44.8408 41.1589 44.8408 41.1589Z" fill="#F2F2F2"/>
<path d="M51.6495 27.9036L54.0528 26.3007C54.0528 26.3007 64.0662 32.3115 71.0756 32.7126C78.085 33.1137 77.8848 37.1207 75.081 39.9259C72.2772 42.7311 61.2627 52.3489 60.862 49.9444C60.4613 47.5399 51.6495 27.9036 51.6495 27.9036Z" fill="#F2F2F2"/>
<path d="M42.7382 19.3944C47.1625 19.3944 50.749 17.2415 50.749 14.5857C50.749 11.9299 47.1625 9.77689 42.7382 9.77689C38.314 9.77689 34.7274 11.9299 34.7274 14.5857C34.7274 17.2415 38.314 19.3944 42.7382 19.3944Z" fill="#090814"/>
<path d="M43.5389 10.9791C46.1934 10.9791 48.3452 8.82617 48.3452 6.17035C48.3452 3.51454 46.1934 1.36157 43.5389 1.36157C40.8844 1.36157 38.7325 3.51454 38.7325 6.17035C38.7325 8.82617 40.8844 10.9791 43.5389 10.9791Z" fill="#090814"/>
<path d="M37.1298 3.56553C37.1299 2.37693 37.5698 1.23046 38.3649 0.347268C39.1599 -0.535922 40.2537 -1.09326 41.4352 -1.21722C41.269 -1.23451 41.1019 -1.2432 40.9348 -1.24326C39.66 -1.24326 38.4375 -0.736606 37.5361 0.165236C36.6347 1.06708 36.1283 2.29024 36.1283 3.56563C36.1283 4.84103 36.6347 6.06419 37.5361 6.96603C38.4375 7.86787 39.66 8.37452 40.9348 8.37452C41.102 8.37447 41.2691 8.36578 41.4354 8.34849C40.2539 8.22452 39.16 7.66716 38.365 6.78393C37.5699 5.9007 37.1299 4.75418 37.1298 3.56553Z" fill="#090814"/>
<path d="M13.7732 106.941L110.296 87.6641L102.23 47.2335L5.70679 66.51L13.7732 106.941Z" fill="white"/>
<path d="M111.086 88.1906L13.2463 107.731L4.91687 65.9826L102.757 46.4422L111.086 88.1906ZM14.3001 106.15L109.506 87.136L101.702 48.0231L6.4966 67.0374L14.3001 106.15Z" fill="#E4E4E4"/>
<path d="M94.7973 60.3528L18.3558 75.6198C17.8938 75.7121 17.594 76.1616 17.6863 76.6238L17.7589 76.9876C17.8511 77.4498 18.3003 77.7497 18.7623 77.6575L95.2039 62.3905C95.6659 62.2982 95.9656 61.8487 95.8734 61.3865L95.8008 61.0227C95.7086 60.5604 95.2593 60.2605 94.7973 60.3528Z" fill="#2A8F7A"/>
<path d="M96.3805 68.2872L19.9389 83.5542C19.4769 83.6465 19.1772 84.096 19.2694 84.5582L19.342 84.922C19.4342 85.3842 19.8835 85.6841 20.3454 85.5919L96.787 70.3249C97.249 70.2326 97.5487 69.7831 97.4565 69.3209L97.3839 68.9571C97.2917 68.4949 96.8424 68.195 96.3805 68.2872Z" fill="#2A8F7A"/>
<path d="M97.9725 76.2671L21.5309 91.5341C21.069 91.6263 20.7692 92.0758 20.8614 92.538L20.934 92.9019C21.0262 93.3641 21.4755 93.664 21.9375 93.5717L98.3791 78.3047C98.841 78.2125 99.1408 77.763 99.0486 77.3008L98.976 76.9369C98.8837 76.4747 98.4345 76.1748 97.9725 76.2671Z" fill="#2A8F7A"/>
<path d="M58.3127 72.8477L55.5806 73.3933C55.3809 73.4331 55.1737 73.3919 55.0044 73.2789C54.8351 73.1659 54.7176 72.9902 54.6777 72.7905L53.386 66.3165C53.3462 66.1168 53.3873 65.9095 53.5003 65.7401C53.6133 65.5707 53.7889 65.4531 53.9885 65.4132L56.7206 64.8676C56.9202 64.8278 57.1274 64.8689 57.2967 64.982C57.466 65.095 57.5836 65.2707 57.6235 65.4704L58.9151 71.9444C58.9549 72.1441 58.9138 72.3514 58.8008 72.5208C58.6878 72.6902 58.5123 72.8078 58.3127 72.8477Z" fill="#090814"/>
<path d="M89.4318 74.8833L86.6997 75.4289C86.5001 75.4687 86.2928 75.4275 86.1235 75.3145C85.9542 75.2015 85.8367 75.0258 85.7968 74.8261L84.5052 68.3521C84.4654 68.1524 84.5065 67.9451 84.6195 67.7757C84.7324 67.6063 84.908 67.4887 85.1076 67.4488L87.8397 66.9032C88.0392 66.8636 88.2463 66.9047 88.4155 67.0176C88.5847 67.1305 88.7022 67.306 88.7422 67.5055L90.0338 73.9796C90.0736 74.1793 90.0325 74.3866 89.9195 74.556C89.8065 74.7254 89.631 74.843 89.4314 74.8829L89.4318 74.8833Z" fill="#090814"/>
<path d="M72.5792 86.5469L69.8471 87.0925C69.6475 87.1323 69.4403 87.0912 69.271 86.9781C69.1016 86.8651 68.9841 86.6894 68.9442 86.4898L67.6532 80.0168C67.6135 79.8171 67.6546 79.6098 67.7675 79.4404C67.8805 79.271 68.0561 79.1534 68.2557 79.1135L70.753 78.5679C70.9526 78.5281 71.1598 78.5692 71.3291 78.6823C71.4985 78.7953 71.616 78.971 71.6559 79.1707L73.1823 85.6447C73.2221 85.8444 73.181 86.0517 73.068 86.2211C72.955 86.3905 72.7795 86.5081 72.5799 86.548L72.5792 86.5469Z" fill="#090814"/>
</svg>
