<svg width="198" height="260" viewBox="0 0 198 260" fill="none" xmlns="http://www.w3.org/2000/svg">
<g clip-path="url(#clip0_23_122)">
<path d="M98.8113 89.9655L102.322 68.0216L78.6411 58.3672L75.1345 91.7181L98.8113 89.9655Z" fill="#A0616A"/>
<path d="M92.8272 75.0751C106.164 75.0751 116.975 64.2547 116.975 50.9069C116.975 37.5592 106.164 26.7387 92.8272 26.7387C79.4906 26.7387 68.6792 37.5592 68.6792 50.9069C68.6792 64.2547 79.4906 75.0751 92.8272 75.0751Z" fill="#A0616A"/>
<path d="M90.9032 18.4172C91.6036 18.8239 92.5375 18.2095 92.7624 17.4305C92.9872 16.6516 92.7235 15.8251 92.4684 15.0592C92.036 13.7739 91.5993 12.4844 91.1669 11.1992C90.2416 8.45995 89.2602 5.62554 87.2626 3.53975C84.2403 0.393774 79.441 -0.406786 75.1215 0.173079C69.5742 0.917382 64.096 3.92489 61.5191 8.89701C58.9378 13.8691 60.036 20.8102 64.7013 23.9129C58.0558 31.5334 55.7382 40.0323 56.1058 50.141C56.4733 60.2496 67.4772 69.5534 74.6589 76.6762C76.263 75.7026 77.7201 71.1459 76.8381 69.4885C75.956 67.8312 77.2186 65.9141 76.129 64.3909C75.0394 62.8677 74.1228 65.2953 75.2296 63.7764C75.9258 62.8201 73.2061 60.6175 74.2438 60.0462C79.2507 57.2767 80.9154 51.0281 84.063 46.2463C87.8549 40.478 94.3492 36.5704 101.22 35.9213C105.003 35.5621 109.002 36.2112 112.102 38.4095C115.203 40.6078 117.213 44.537 116.495 48.2759C118.359 46.3805 119.284 43.6067 118.934 40.9756C118.584 38.3446 116.967 35.904 114.671 34.5668C116.063 29.9539 114.87 24.6486 111.635 21.0785C108.401 17.5084 95.2745 18.1186 90.5529 19.0576" fill="#2F2E41"/>
<path d="M90.1682 36.0555C83.9117 36.7305 79.3934 42.157 75.5799 47.1637C73.3834 50.0501 71.0789 53.2393 71.1351 56.87C71.1913 60.5396 73.6428 63.6856 74.8146 67.1648C76.73 72.8509 74.8621 79.6102 70.3049 83.5048C74.8102 84.3616 79.6788 80.982 80.457 76.4599C81.3607 71.1978 77.3742 66.1175 77.8455 60.7949C78.2606 56.1084 81.9531 52.4994 85.0878 48.9942C88.2225 45.4891 91.1713 40.8372 89.7271 36.3584" fill="#2F2E41"/>
<path d="M91.3658 257.404C91.3658 257.404 39.0486 262.596 35.1573 256.538C31.2659 250.48 88.2484 244.422 88.2484 244.422L91.3658 257.404Z" fill="#A0616A"/>
<path d="M58.0082 160.324L56.9273 166.066C59.8717 170.415 60.1528 175.011 58.4406 179.797L118.108 180.23C117.468 173.76 116.763 166.828 119.219 160.471L58.0082 160.324Z" fill="#A0616A"/>
<path d="M155.742 203.022L134.102 185.695C131.226 183.393 129.363 179.97 128.995 176.305L125.662 143.3L145.529 136.671L150.32 169.351L162.258 196.505L155.746 203.022H155.742Z" fill="#A0616A"/>
<path d="M72.9251 87.8408L101.894 86.5426L132.593 101.178L120.054 160.973L56.4949 165.733L47.8474 99.5246L72.9251 87.8408Z" fill="#2A8F7A"/>
<path d="M119.219 174.751C123.573 180.494 125.398 194.32 127.248 208.072C127.248 208.072 46.827 207.639 46.3946 207.639C45.9623 207.639 58.687 178.646 58.687 178.646L119.219 174.751Z" fill="#2F2E41"/>
<path d="M121.848 204.402L127.253 208.072C127.253 208.072 203.783 202.879 197.297 227.112C190.812 251.345 170.49 255.24 170.49 255.24L88.3392 260L87.4745 246.585C87.4745 246.585 8.35011 264.327 0.999757 227.978C-6.35059 191.628 46.399 207.639 46.399 207.639L121.848 204.402Z" fill="#2F2E41"/>
<path d="M89.5542 233.17C89.5542 233.17 91.3658 223.65 104.337 227.545C117.308 231.439 124.659 236.632 124.659 236.632L93.5277 244.422L89.5542 233.17Z" fill="#A0616A"/>
<path d="M121.999 100.174C121.999 100.174 136.7 94.981 142.321 111.858C147.942 128.734 146.645 142.582 146.645 142.582L125.026 149.506L121.999 100.174Z" fill="#2A8F7A"/>
<path d="M21.1916 205.657L16.4744 197.34L26.6655 171.951L31.4562 139.267L51.3237 145.896L47.9469 179.304C47.601 182.718 45.8672 185.903 43.1908 188.045L21.1916 205.661V205.657Z" fill="#A0616A"/>
<path d="M54.9816 100.174C54.9816 100.174 40.2809 94.981 34.66 111.858C29.0392 128.734 30.3363 142.582 30.3363 142.582L51.955 149.506L54.9816 100.174Z" fill="#2A8F7A"/>
<path d="M161.994 206.843C167.725 206.843 172.371 199.965 172.371 191.481C172.371 182.997 167.725 176.119 161.994 176.119C156.263 176.119 151.617 182.997 151.617 191.481C151.617 199.965 156.263 206.843 161.994 206.843Z" fill="#A0616A"/>
<path d="M16.2842 209.439C22.0152 209.439 26.6611 202.561 26.6611 194.077C26.6611 185.593 22.0152 178.715 16.2842 178.715C10.5531 178.715 5.9072 185.593 5.9072 194.077C5.9072 202.561 10.5531 209.439 16.2842 209.439Z" fill="#A0616A"/>
<path d="M55.9112 219.756L93.5277 230.574L100.878 243.556L86.8216 246.585" fill="#2F2E41"/>
</g>
<defs>
<clipPath id="clip0_23_122">
<rect width="198" height="260" fill="white"/>
</clipPath>
</defs>
</svg>
